<svg width="18" height="20" viewBox="0 0 18 20" fill="none" xmlns="http://www.w3.org/2000/svg">
<path d="M2.53018 19.7562H8.16405V12.9157H6.13991V10.6606H8.16405V7.84176C8.16405 6.28742 9.29908 5.02289 10.6942 5.02289H13.2244V7.27799H11.2003C10.6422 7.27799 10.1882 7.78377 10.1882 8.40553V10.6606H13.1331L12.7957 12.9157H10.1882V19.7562H14.7425C16.1377 19.7562 17.2727 18.4917 17.2727 16.9373V3.33157C17.2727 1.77722 16.1377 0.512695 14.7425 0.512695H2.53018C1.13502 0.512695 0 1.77722 0 3.33157V16.9373C0 18.4917 1.13502 19.7562 2.53018 19.7562ZM1.01207 3.33157C1.01207 2.39899 1.69311 1.64024 2.53018 1.64024H14.7425C15.5796 1.64024 16.2606 2.39899 16.2606 3.33157V16.9373C16.2606 17.8699 15.5796 18.6286 14.7425 18.6286H11.2003V14.0433H13.6531L14.3278 9.53308H11.2003V8.40553H14.2365V3.89534H10.6942C8.74099 3.89534 7.15198 5.66565 7.15198 7.84176V9.53308H5.12783V14.0433H7.15198V18.6286H2.53018C1.69311 18.6286 1.01207 17.8699 1.01207 16.9373V3.33157Z" fill="white"/>
</svg>
