<svg width="18" height="20" viewBox="0 0 18 20" fill="none" xmlns="http://www.w3.org/2000/svg">
<path d="M8.63635 0.588257C3.88976 0.588257 0 4.95942 0 10.2476C0 15.5051 3.85431 19.8317 8.63635 19.8317C13.4125 19.8317 17.2727 15.5115 17.2727 10.2476C17.2727 4.95942 13.3829 0.588257 8.63635 0.588257ZM10.1545 18.5351C9.66872 18.6478 9.15254 18.7042 8.63635 18.7042C8.12017 18.7042 7.60399 18.6478 7.11824 18.5351V15.8966C7.11824 15.2652 7.27005 15.0397 7.47247 14.7352C7.57552 14.6039 7.63772 14.4862 8.09988 13.7092L7.32066 13.5739C5.31668 13.2469 4.52731 12.0854 4.21354 11.1834C3.80871 9.97701 4.02128 8.46597 4.75002 7.5077C4.86137 7.36103 4.95243 7.11292 4.87152 6.85364C4.71958 6.33494 4.73987 5.51188 4.84108 5.19608C5.37769 5.28153 5.92945 5.70979 6.38963 6.01928C6.60167 6.15714 6.71289 6.12073 6.81462 6.13204C7.1844 6.0463 7.7612 5.83884 8.6465 5.83884C9.19299 5.83884 9.76993 5.92899 10.3367 6.10943C10.4381 6.10678 10.6009 6.2028 10.8832 6.01928C11.3642 5.69276 11.8973 5.27918 12.4316 5.19608C12.5328 5.51188 12.5531 6.33494 12.4013 6.85364C12.3203 7.11292 12.4113 7.36103 12.5228 7.5077C13.2514 8.46612 13.464 9.97701 13.0592 11.1834C12.7454 12.0854 11.956 13.2469 9.95205 13.5739L9.17283 13.7092C9.65053 14.5123 9.70087 14.6086 9.80037 14.7352C10.0027 15.0397 10.1545 15.2652 10.1545 15.8966V18.5351ZM11.1665 18.2081V15.8966C11.1665 15.2539 11.045 14.8255 10.8831 14.5097C12.4215 14.0475 13.5146 13.0325 14.0003 11.578C14.5165 10.0447 14.2838 8.218 13.4234 6.95509C13.5753 6.19972 13.5753 4.99318 13.211 4.42941C13.049 4.18144 12.8263 4.04607 12.543 4.04607C12.5328 4.04607 12.5328 4.04607 12.5328 4.04607C11.7481 4.09335 11.1304 4.53365 10.4682 4.98188C9.86099 4.80144 9.2436 4.7113 8.62621 4.7113C7.9988 4.7113 7.37126 4.81275 6.81475 4.98188C6.11764 4.51353 5.50591 4.09217 4.69942 4.04607C4.4464 4.04607 4.22369 4.18144 4.06173 4.42941C3.69749 4.99318 3.69749 6.19972 3.8493 6.95509C2.98891 8.218 2.75618 10.0558 3.27237 11.578C3.75811 13.0325 4.85123 14.0475 6.38963 14.5097C6.26404 14.7544 6.16468 15.0702 6.12554 15.4976C5.81481 15.617 5.54531 15.6559 5.29467 15.5738C5.03032 15.4867 4.82434 15.2901 4.64539 14.9548C4.24346 14.2025 3.55886 13.5884 2.77938 13.6683L2.86833 14.7914C3.22928 14.7546 3.58851 15.18 3.77511 15.5308C4.08295 16.1083 4.49766 16.4871 5.00805 16.6551C5.38691 16.7794 5.73323 16.7765 6.10617 16.6878V18.2081C3.16101 17.058 1.01207 13.9234 1.01207 10.2476C1.01207 5.57957 4.4464 1.71581 8.63635 1.71581C12.8263 1.71581 16.2606 5.57957 16.2606 10.2476C16.2606 13.9234 14.1117 17.058 11.1665 18.2081Z" fill="white"/>
</svg>
