<svg width="18" height="21" viewBox="0 0 18 21" fill="none" xmlns="http://www.w3.org/2000/svg">
<path d="M2.53018 20.1147H14.7425C16.1377 20.1147 17.2727 18.8502 17.2727 17.2958V3.69009C17.2727 2.13574 16.1377 0.871216 14.7425 0.871216H2.53018C1.13502 0.871216 0 2.13574 0 3.69009V17.2958C0 18.8502 1.13502 20.1147 2.53018 20.1147ZM1.01207 3.69009C1.01207 2.75751 1.69311 1.99876 2.53018 1.99876H14.7425C15.5796 1.99876 16.2606 2.75751 16.2606 3.69009V17.2958C16.2606 18.2284 15.5796 18.9872 14.7425 18.9872H2.53018C1.69311 18.9872 1.01207 18.2284 1.01207 17.2958V3.69009Z" fill="white"/>
<path d="M8.63635 15.5671C11.1476 15.5671 13.1907 13.2909 13.1907 10.4932C13.1907 7.69543 11.1476 5.41919 8.63635 5.41919C6.12515 5.41919 4.08203 7.69543 4.08203 10.4932C4.08203 13.2909 6.12515 15.5671 8.63635 15.5671ZM8.63635 6.54674C10.5896 6.54674 12.1786 8.31705 12.1786 10.4932C12.1786 12.6693 10.5896 14.4396 8.63635 14.4396C6.68311 14.4396 5.0941 12.6693 5.0941 10.4932C5.0941 8.31705 6.68311 6.54674 8.63635 6.54674Z" fill="white"/>
<path d="M13.4092 6.27284C14.2363 6.27284 14.9092 5.52314 14.9092 4.60169C14.9092 3.68024 14.2363 2.93054 13.4092 2.93054C12.5821 2.93054 11.9092 3.68024 11.9092 4.60169C11.9092 5.52314 12.5821 6.27284 13.4092 6.27284ZM13.4092 4.04464C13.6848 4.04464 13.9092 4.29459 13.9092 4.60169C13.9092 4.90879 13.6848 5.15874 13.4092 5.15874C13.1335 5.15874 12.9092 4.90879 12.9092 4.60169C12.9092 4.29459 13.1335 4.04464 13.4092 4.04464Z" fill="white"/>
</svg>
