<svg width="18" height="17" viewBox="0 0 18 17" fill="none" xmlns="http://www.w3.org/2000/svg">
<path d="M17.2727 2.89907C16.1862 2.95486 16.2099 2.95031 16.0871 2.96177L16.7306 0.914415C16.7306 0.914415 14.722 1.73761 14.2128 1.88487C12.8755 0.545759 10.8877 0.486593 9.46657 1.45969C8.30282 2.25675 7.67818 3.62552 7.88652 5.22538C5.62161 4.87522 3.7133 3.67911 2.20666 1.66274L1.73014 1.02511L1.37407 1.75362C0.924043 2.67415 0.774604 3.72668 0.953167 4.71725C1.02644 5.12363 1.15097 5.51123 1.32347 5.87416L0.914687 5.69768L0.866192 6.45863C0.817038 7.23162 1.04805 8.13395 1.48424 8.87214C1.60706 9.08003 1.7652 9.30833 1.96563 9.53355L1.75439 9.49743L2.01215 10.3694C2.35096 11.515 3.05467 12.4013 3.9679 12.894C3.05585 13.3252 2.31907 13.6004 1.10801 14.0442L0 14.45L1.02341 15.0734C1.41361 15.3111 2.79242 16.1049 4.15477 16.343C7.18308 16.8722 10.5926 16.4412 12.888 14.1381C14.8213 12.1983 15.4557 9.43885 15.3239 6.56728C15.304 6.13255 15.4109 5.71765 15.6249 5.39921C16.0536 4.76158 17.2701 2.90333 17.2727 2.89907ZM14.8157 4.72385C14.4602 5.25254 14.2822 5.92774 14.3141 6.62483C14.4471 9.52136 13.7397 11.7676 12.2114 13.301C10.4262 15.0923 7.54666 15.7954 4.31146 15.23C3.72556 15.1277 3.12003 14.8985 2.61887 14.6696C3.63424 14.2804 4.41833 13.9335 5.68461 13.2658L7.45231 12.3336L5.50064 12.1944C4.56579 12.1278 3.78737 11.623 3.30887 10.8035C3.56294 10.7871 3.80792 10.7413 4.05185 10.6655L5.91324 10.0879L4.0363 9.57583C3.12425 9.32698 2.60437 8.71901 2.32882 8.25272C2.14789 7.94632 2.02968 7.63243 1.95878 7.34305C2.14696 7.39928 2.36638 7.43936 2.72021 7.47842L4.45747 7.66986L3.08102 6.47361C2.08924 5.6118 1.6918 4.31702 1.98316 3.07232C5.07842 6.64905 8.71265 6.38023 9.07847 6.47478C8.99796 5.60343 8.99585 5.60137 8.97476 5.51842C8.50629 3.67338 9.53299 2.73655 9.99606 2.41943C10.9633 1.75714 12.4987 1.6573 13.5622 2.74844C13.7919 2.98393 14.1025 3.07658 14.3932 2.99612C14.6541 2.92389 14.8682 2.8474 15.0779 2.76415L14.6414 4.15274L15.1986 4.15318C15.0935 4.31027 14.9673 4.49834 14.8157 4.72385Z" fill="white"/>
</svg>
