<svg width="32" height="32" viewBox="0 0 32 32" fill="none" xmlns="http://www.w3.org/2000/svg">
<path d="M15.6596 31.1752C12.7496 31.1752 9.73305 31.146 6.68105 31.0876L5.98903 31.0778C4.54287 31.0486 2.90154 31.0194 1.47313 30.9707C0.67464 30.9415 0.018105 30.25 0.000360849 29.3735C-0.0173833 28.4677 0.621408 27.7275 1.44651 27.6983C1.44651 27.6983 1.44651 27.6983 1.45538 27.6983C1.75704 27.6886 1.95222 27.3477 1.83688 27.0458C1.06501 25.0687 0.665768 22.9066 0.665768 20.6958C0.665768 17.2579 1.62395 13.966 3.43386 11.1709C4.99535 8.76529 7.08917 6.88563 9.51125 5.69744C9.54674 5.40526 9.59997 5.13257 9.67982 4.88909C9.95485 4.0223 10.3896 2.89255 11.2591 1.91863C12.3947 0.642788 13.9029 0 15.7483 0C17.6026 0 19.1286 0.662267 20.2731 1.95758C21.3378 3.16525 21.6926 4.53847 21.7991 5.06439C21.8346 5.26892 21.8612 5.49292 21.879 5.75588C24.2744 6.96354 26.3327 8.83347 27.8676 11.2196C29.6598 14.005 30.6091 17.2774 30.6091 20.6958C30.6091 22.9164 30.2098 25.0882 29.438 27.0945C29.3315 27.3769 29.509 27.6983 29.7929 27.7081C29.8017 27.7081 29.8017 27.7081 29.8106 27.7081C30.6091 27.7373 31.2656 28.4288 31.2834 29.3053C31.3011 30.211 30.6623 30.9512 29.8372 30.9804C28.3378 31.0291 26.6965 31.0681 24.8334 31.1071C21.7902 31.1655 18.8358 31.1947 16.0411 31.1947L15.6596 31.1752Z" fill="white"/>
<path d="M10.8868 6.97314L8.42038 8.33663L6.73468 9.73908L4.8538 12.0181L3.72704 14.0146L2.96404 16.0111L2.36074 18.9524L2.28976 21.6112L2.60916 24.007L3.26569 26.6658L4.86267 29.3441H26.5461L27.7882 26.5684L28.6931 23.8804L29.0125 19.8581L28.4447 16.4591L27.451 13.8101L26.0315 11.4629L24.3103 9.52482L22.8287 8.12237L20.3356 7.12897L10.8868 6.97314Z" fill="#008BCA"/>
<path d="M28.7375 22.5072C28.8173 21.9326 28.773 21.4359 28.5867 20.9879C28.3471 20.423 27.9124 20.014 27.3623 19.8192C26.3065 19.4588 23.0948 17.5305 21.1075 16.2741C20.9478 16.1183 20.7969 15.9722 20.655 15.8456L20.6816 15.5047C20.9389 14.8911 21.143 14.2386 21.2938 13.5569C21.3293 13.5179 21.3648 13.4789 21.4002 13.44C21.7906 12.992 22.0745 12.3297 22.1455 11.7162C22.7133 10.5864 22.7666 9.27161 22.6069 8.32691L20.9744 7.21663C20.9744 7.21663 20.6994 7.13872 20.2912 7.02185C20.2291 7.00237 20.3888 7.23611 20.1493 8.19056C20.1138 8.32691 20.1138 9.73909 20.0783 9.89492C20.0251 10.1092 20.0694 11.4337 20.0073 11.6675C19.9718 11.8135 19.9097 12.768 19.8742 12.9238C19.8121 13.177 19.4661 14.0633 19.404 14.3263C19.3419 14.5795 19.1911 15.3197 19.1379 15.5826C19.0935 15.7871 19.1201 16.7124 19.0669 16.9169C18.9959 17.2383 19.8831 16.8974 19.8033 17.2091C19.75 17.4428 20.6905 18.1343 20.8768 18.2414C22.4915 19.2056 23.2545 19.566 23.1658 19.4199L24.5765 20.3061C25.6766 20.9489 26.4485 21.1632 27.1316 21.4846C27.2026 21.7768 27.2647 22.2929 27.2647 23.0331L27.6018 24.5817L27.939 25.9159L28.4536 24.7862L28.7907 22.8773L28.7375 22.5072Z" fill="#047FA6"/>
<path d="M5.61675 29.3834H6.31764C6.69914 29.3834 7.95011 29.3249 8.50905 29.3249C9.28979 29.3249 11.0287 29.3834 11.428 29.3834H12.2708C12.6346 29.3834 14.0275 29.3444 14.5509 29.3444C14.9147 29.3444 15.793 29.3834 15.9882 29.3834H16.8311C17.0529 29.3834 18.3127 29.3639 18.641 29.3639C19.1467 29.3639 20.2912 29.3834 20.5485 29.3834H22.1188C22.2342 29.3834 22.6689 29.3834 22.7842 29.3834H23.5206C23.7247 29.3834 24.3901 29.3834 24.5853 29.3834H25.3217C25.3749 29.3834 25.5878 29.3834 25.6411 29.3834H26.3242L26.8565 28.6724L27.8946 26.4421L27.2292 22.975L27.1493 21.5238L24.3546 20.1019L21.7196 18.5144L19.9984 17.5405L19.0846 16.9366L12.2619 17.1022L11.9425 17.1996L11.0465 17.7937L9.76001 18.7871L7.63071 19.6734L5.01345 21.0271L4.58759 21.5336V22.1471L4.47225 22.7023L3.47857 26.3642L3.38098 26.5979L4.86262 29.3639C5.17314 29.3736 5.52803 29.3834 5.61675 29.3834Z" fill="#293F6E"/>
<path d="M24.47 25.2245C24.47 25.2245 24.3546 28.2339 25.5257 29.3149C25.6588 29.4416 23.6626 29.3149 23.6626 29.3149L23.7602 27.9028L24.47 25.2245Z" fill="#203456"/>
<path d="M11.3037 8.6485L11.0553 7.30449L11.0997 5.31768L11.774 3.9055L12.954 2.55174L14.267 1.92843L16.0414 1.646L17.461 1.95765L18.6055 2.5907L19.5725 3.71071L20.2646 4.91838L20.3533 6.42796L20.1581 8.21024L20.7614 7.91806L21.0098 8.26867L21.1163 9.31077L20.9921 10.2555L20.442 11.2976V12.0572L19.9718 12.4858L19.6613 13.6252L19.058 15.3978L18.3216 16.2938L17.9401 16.81L17.0529 17.7936L15.4736 17.891L14.0097 17.4235L13.1137 16.3035L12.12 14.8816L11.5522 12.6416L11.1707 12.3591L10.8868 11.9209V11.2489L10.3722 9.89512L10.2923 8.63876L10.5851 7.98623L10.9666 8.03493L11.3037 8.6485Z" fill="#FFCDAF"/>
<path d="M20.9301 8.12236L20.2913 7.90809L20.3534 5.77521L19.9541 4.24615L18.8274 2.75605L17.6297 2.04509L15.8996 1.65552L14.6309 1.73343L14.0808 2.00613C16.8134 2.32752 18.9161 4.89868 17.0175 8.91123C17.0175 8.91123 16.4497 9.27158 15.9794 9.24237C15.9794 9.24237 15.8641 9.68063 16.2101 9.90463C16.2101 9.90463 16.7957 13.7516 15.3052 13.8393L14.622 13.7224L14.4091 13.5374C14.4091 13.5374 14.6131 14.1509 14.9414 14.1509C14.9414 14.1509 15.1721 14.5308 15.6867 14.5502C15.8197 14.5502 15.4116 15.0275 15.5891 14.969C15.5891 14.969 16.4319 15.0956 15.7576 16.0209C15.4737 16.0111 15.1721 15.9429 14.8527 15.8066C14.8083 15.7871 14.7728 15.8456 14.8083 15.8845C14.9325 16.0403 15.7488 15.9916 15.2253 16.4689C15.0656 16.576 15.1366 16.7416 15.2874 16.7123C15.3584 16.7026 15.4205 16.6929 15.4915 16.6929C15.6157 16.6734 15.7665 16.761 15.8907 16.7708L16.3255 17.8226L17.3812 17.5402L17.6918 17.1311L18.7475 17.024L19.0936 16.537L18.9693 15.1541L19.5194 14.0341L19.9453 12.4076L20.2026 12.281L20.5575 11.2486L21.072 9.75854L20.9301 8.12236Z" fill="#EBBBA1"/>
<path d="M15.2696 10.7522C15.2696 10.7522 15.2075 10.4795 15.2252 10.2166C15.2252 10.2166 14.9857 10.3821 14.8615 10.684C14.6574 10.499 14.2759 10.275 13.8234 10.2945C13.3 10.3139 12.9274 10.5769 12.7144 10.6743C12.6612 10.6938 12.6612 10.7814 12.7144 10.8009C13.0161 10.9275 13.6904 11.1807 14.3735 11.1223C14.3735 11.1223 14.551 11.132 14.7728 11.1223C14.8703 11.2294 15.0212 11.4827 14.9413 11.9307C14.8349 12.5053 14.3291 12.6319 14.2848 13.1675L14.267 13.1968C14.2404 13.2357 14.2049 13.2747 14.1606 13.3136C14.0807 13.3818 13.992 13.4305 13.8944 13.4889C13.7081 13.5961 13.504 13.7129 13.3355 13.8882C13.1669 14.0635 13.0516 14.2875 13.0072 14.5213C12.9628 14.755 12.9895 14.9888 13.0516 15.203C13.0782 14.979 13.1048 14.7648 13.1758 14.5602C13.2379 14.3655 13.3443 14.1902 13.4863 14.0441C13.6283 13.898 13.8057 13.7714 13.9831 13.635C14.0719 13.5668 14.1606 13.4889 14.2316 13.3915C14.2493 13.3721 14.2582 13.3526 14.267 13.3331C14.267 13.3623 14.2759 13.4013 14.2759 13.4402C14.3558 13.9272 14.4977 13.4402 14.4977 13.4402C14.4977 13.4402 14.4179 12.5247 15.2518 12.4955L15.2075 11.5313L15.2696 10.7522Z" fill="#EBBBA1"/>
<path d="M12.3152 10.0219C12.2709 10.0414 12.2265 9.98289 12.262 9.9439C12.4306 9.70024 12.8387 9.26165 13.5307 9.31039C14.1961 9.35912 14.2405 9.60278 14.7817 9.71974C14.9325 9.74897 14.9769 9.9634 14.8615 10.0609C14.7906 10.1193 14.6575 10.2071 14.5244 10.2071C14.0719 10.2071 13.8146 9.85619 13.3799 9.8172C13.0871 9.78796 12.7145 9.82695 12.3152 10.0219Z" fill="#EBBBA1"/>
<path d="M14.0541 13.2355C14.0541 13.2842 14.0541 13.3426 14.0364 13.3913C14.0186 13.44 13.992 13.4887 13.9565 13.5277C13.8944 13.6056 13.8146 13.664 13.7347 13.7224C13.575 13.8296 13.4242 13.9172 13.3 14.0341C13.1758 14.151 13.0693 14.2971 13.0072 14.4626C12.9362 14.6282 12.8919 14.823 12.8564 15.0178C12.8209 14.823 12.8209 14.6087 12.8741 14.4042C12.9274 14.1997 13.0338 14.0049 13.1847 13.8685C13.3355 13.7322 13.5129 13.6445 13.6726 13.5666C13.7525 13.5277 13.8323 13.4887 13.9033 13.44C13.9388 13.4108 13.9654 13.3816 13.992 13.3523L14.0098 13.3231C14.0186 13.3134 14.0187 13.3036 14.0275 13.2939C14.0364 13.2842 14.0453 13.2647 14.0541 13.2355Z" fill="#272A24"/>
<path d="M17.2481 13.2355C17.257 13.255 17.2659 13.2842 17.2747 13.3036C17.2836 13.3134 17.2836 13.3231 17.2925 13.3329L17.3102 13.3621C17.3368 13.401 17.3634 13.4303 17.3989 13.4497C17.4699 13.4984 17.5498 13.5374 17.6296 13.5763C17.7893 13.6543 17.9668 13.7322 18.1176 13.8783C18.2684 14.0146 18.3837 14.2094 18.4281 14.4139C18.4813 14.6185 18.4813 14.823 18.4458 15.0275C18.4104 14.8327 18.366 14.6379 18.295 14.4724C18.224 14.2971 18.1265 14.1607 18.0022 14.0438C17.878 13.927 17.7183 13.8393 17.5675 13.7322C17.4877 13.6737 17.4078 13.6153 17.3457 13.5374C17.3102 13.4984 17.2836 13.4497 17.2659 13.401C17.2481 13.3426 17.2392 13.2842 17.2481 13.2355Z" fill="#272A24"/>
<path d="M15.7044 14.3166C15.4205 14.3166 15.2608 14.1608 15.1543 14.0634C15.1011 14.0147 15.0745 13.9855 15.0567 13.9855C14.6752 13.9757 14.4091 13.7907 14.3204 13.4888C14.2671 13.3232 14.3825 13.1089 14.4889 12.9628C14.4978 12.9434 14.5155 12.9434 14.5244 12.9434C14.5333 12.9434 14.551 12.9531 14.5599 12.9628C14.5688 12.9726 14.5688 12.9823 14.5688 12.9921C14.5599 13.1674 14.5688 13.3037 14.6043 13.3914C14.6752 13.5569 14.8349 13.6543 15.0745 13.6641C15.1987 13.6641 15.2785 13.742 15.3584 13.8199C15.4471 13.9076 15.5447 13.9952 15.7222 13.9952C15.8907 13.9952 15.9706 13.9173 16.0504 13.8491C16.1214 13.7907 16.2013 13.7225 16.3077 13.7225H16.3343C16.5295 13.7225 16.6803 13.6349 16.7957 13.4693C16.8489 13.3816 16.8844 13.2453 16.8933 13.0408C16.8933 13.0115 16.9199 13.0018 16.9376 13.0018C16.9465 13.0018 16.9643 13.0018 16.9731 13.031C17.053 13.2063 17.1417 13.4498 17.0618 13.6154C16.9376 13.8978 16.6715 14.0634 16.3432 14.0634C16.3343 14.0634 16.3077 14.0634 16.3077 14.0634H16.2988C16.2811 14.0731 16.2634 14.0926 16.2279 14.1218C16.1214 14.1803 15.9706 14.3166 15.7044 14.3166Z" fill="#272A24"/>
<path d="M15.1365 12.9045C15.172 12.6999 15.1898 12.4954 15.1986 12.2909C15.1986 12.0864 15.1898 11.8916 15.1809 11.6871C15.172 11.4825 15.1543 11.278 15.1631 11.0637C15.172 10.8495 15.1898 10.6352 15.2607 10.4404C15.2785 10.6547 15.3051 10.8495 15.3317 11.054C15.3583 11.2585 15.3849 11.4631 15.3938 11.6773C15.4027 11.8916 15.4027 12.1058 15.3672 12.3201C15.3317 12.5246 15.2607 12.7389 15.1365 12.9045Z" fill="#272A24"/>
<path d="M12.2797 9.72972C12.2353 9.74921 12.191 9.69073 12.2265 9.65175C12.395 9.42757 12.7854 9.11568 13.4863 9.17416C14.1606 9.23264 14.2049 9.46656 14.7639 9.58352C14.9147 9.61276 14.9946 9.71997 14.8703 9.80769C14.7994 9.86617 14.7106 9.90516 14.5776 9.89541C14.1162 9.88567 13.8944 9.63225 13.4508 9.57377C13.1492 9.55428 12.6878 9.56403 12.2797 9.72972Z" fill="#272A24"/>
<path d="M12.2708 15.3779V16.7414L13.8678 17.54L13.0871 16.1181L12.2708 15.3779Z" fill="#EBBBA1"/>
<path d="M11.3925 8.93073L10.9666 7.96655L10.4609 8.07368L10.2923 8.78465L10.2568 9.87544L10.9577 11.2974L10.8868 12.0668L11.5167 12.4661L11.3747 11.3753L11.4191 9.76831L11.3925 8.93073Z" fill="#EBBBA1"/>
<path d="M12.2708 16.9366L12.6701 21.3096L14.409 21.1635L14.1606 20.209L14.3558 19.7708L15.5624 18.2514L13.7791 17.4528L12.2708 16.9366Z" fill="white"/>
<path d="M14.1073 2.1134C14.1073 2.1134 11.0287 3.93464 11.3038 7.72319L11.0465 7.29466L10.9666 6.17465L11.3747 4.65534L12.4305 3.02889L13.4331 2.1134H14.1073Z" fill="white"/>
<path d="M6.85 23.2281C6.81451 23.8904 7.10729 28.0198 6.53948 28.76C6.45075 28.8769 6.20234 29.0814 5.95392 29.2859C5.62565 29.5489 7.63074 29.4125 7.63074 29.4125L7.42668 26.8219L6.85 23.2281Z" fill="#203456"/>
<path d="M12.0757 17.4428C12.0757 17.4428 10.39 18.5336 9.62701 20.5301L9.39633 20.2379L9.84881 19.1569L10.5852 18.1732L11.8273 17.3649L12.0757 17.4428Z" fill="white"/>
<path d="M9.80441 18.9525C9.80441 18.9525 5.13769 21.1243 4.96912 21.66C4.80055 22.1956 4.96912 22.556 4.96912 22.556L4.52551 21.9424L4.66747 21.4165L5.38611 20.8127L6.93872 19.9556L9.38742 18.7675L9.6802 18.7869L9.80441 18.9525Z" fill="white"/>
<path d="M12.5814 10.4895L13.3532 10.2166L14.1872 10.3628L14.2937 10.7039L13.8235 10.7526H13.2113L12.5814 10.4895Z" fill="white"/>
<path d="M14.6664 10.6942C14.5155 10.509 14.1074 10.1094 13.5662 10.1386C13.0428 10.1776 12.6879 10.3628 12.475 10.47C12.4217 10.4992 12.4217 10.5772 12.4838 10.5967C12.7855 10.7137 13.4686 10.9378 14.1518 10.8599L13.9211 10.9963C13.8945 11.0061 13.9122 11.0548 13.9389 11.0451C14.0986 11.0256 14.4002 10.9671 14.6575 10.8306C14.693 10.8014 14.7019 10.7332 14.6664 10.6942ZM13.0517 10.4213C13.1049 10.392 13.1936 10.353 13.3089 10.314C13.3267 10.3043 13.3444 10.3238 13.3356 10.3433C13.3267 10.3725 13.3267 10.4018 13.3267 10.431C13.3267 10.4992 13.3444 10.5577 13.3711 10.6065C13.3799 10.6162 13.3711 10.6259 13.3622 10.6259C13.2557 10.5967 13.1404 10.548 13.0428 10.4797C13.025 10.4797 13.025 10.4408 13.0517 10.4213ZM14.2405 10.6357C14.1873 10.6552 14.0897 10.6747 13.9744 10.6844C13.9566 10.6844 13.9477 10.6649 13.9566 10.6552C14.001 10.587 14.0187 10.509 14.0187 10.4213C14.0187 10.4115 14.0187 10.392 14.0187 10.3823C14.0986 10.431 14.1784 10.4895 14.2583 10.5675C14.276 10.587 14.2671 10.6259 14.2405 10.6357Z" fill="#272A24"/>
<path d="M18.7741 10.4797L18.0111 10.2166L17.1682 10.3628L17.0706 10.7039L17.532 10.7526H18.153L18.7741 10.4797Z" fill="white"/>
<path d="M16.7513 10.8405C17.0086 10.977 17.3014 11.0355 17.4699 11.055C17.4965 11.055 17.5054 11.016 17.4877 11.0062L17.257 10.8698C17.9402 10.9477 18.6233 10.7236 18.9249 10.6066C18.9782 10.5871 18.9782 10.4994 18.9249 10.4799C18.7209 10.3824 18.366 10.1875 17.8337 10.1583C17.2925 10.129 16.8844 10.5286 16.7336 10.7138C16.6892 10.7431 16.7069 10.8113 16.7513 10.8405ZM18.3483 10.4896C18.2507 10.5579 18.1442 10.6066 18.0289 10.6358C18.02 10.6358 18.0111 10.6261 18.0111 10.6164C18.0377 10.5676 18.0555 10.4994 18.0555 10.4409C18.0555 10.4117 18.0555 10.3824 18.0466 10.3532C18.0466 10.3337 18.0555 10.3142 18.0732 10.324C18.1886 10.3532 18.2773 10.4019 18.3305 10.4214C18.366 10.4312 18.366 10.4702 18.3483 10.4896ZM17.1417 10.5676C17.2215 10.4896 17.3014 10.4214 17.3812 10.3824C17.3812 10.3922 17.3812 10.4117 17.3812 10.4214C17.3812 10.5091 17.399 10.5871 17.4433 10.6553C17.4522 10.6651 17.4433 10.6846 17.4256 10.6846C17.3102 10.6748 17.2126 10.6553 17.1594 10.6358C17.1239 10.6261 17.115 10.5871 17.1417 10.5676Z" fill="#272A24"/>
<path d="M15.7309 15.1252C16.423 15.1252 16.7158 15.2421 17.0351 15.2421C17.3102 15.2421 17.5763 15.0862 17.5763 15.0862C17.6385 15.1349 17.7538 15.0472 17.7715 14.979C17.7893 14.901 17.5586 14.6866 17.5409 14.7938C17.5231 14.901 17.3191 15.0375 17.186 15.0375C17.044 15.0375 16.627 14.6866 16.3343 14.6671C16.2012 14.6573 15.9616 14.7256 15.8285 14.7645C15.7664 14.784 15.7043 14.784 15.6334 14.7645C15.5003 14.7256 15.2607 14.6573 15.1276 14.6671C14.8349 14.6866 14.4179 15.0375 14.2759 15.0375C14.134 15.0375 13.9388 14.901 13.921 14.7938C13.9033 14.6866 13.6726 14.901 13.6904 14.979C13.7081 15.0569 13.8323 15.1349 13.8856 15.0862C13.8856 15.0862 14.1517 15.2421 14.4267 15.2421C14.7461 15.2421 15.0389 15.1252 15.7309 15.1252Z" fill="#272A24"/>
<path d="M16.9287 15.5145C16.9553 15.4853 16.9198 15.4365 16.8843 15.456C16.4851 15.6412 16.0947 15.6997 15.7576 15.6899C15.4204 15.6997 15.0389 15.6509 14.6574 15.4755C14.6131 15.456 14.5776 15.5145 14.6131 15.5535C14.7461 15.7094 14.9768 15.9336 15.314 16.0506C15.2962 16.0603 15.2696 16.0603 15.2518 16.07C15.1809 16.0993 15.1188 16.1383 15.0478 16.1773C14.8881 16.2845 14.9325 16.3137 15.0833 16.2845C15.1543 16.2747 15.2164 16.2552 15.2873 16.2455C15.4204 16.226 15.5535 16.2162 15.6866 16.2162C15.8197 16.2162 15.9527 16.226 16.0858 16.2455C16.1834 16.2552 16.281 16.2747 16.3875 16.304C16.423 16.3137 16.4407 16.265 16.4141 16.2455C16.3342 16.1773 16.2455 16.1188 16.1479 16.0798C16.5294 15.9433 16.7956 15.6704 16.9287 15.5145Z" fill="#272A24"/>
<path d="M10.2569 21.6111L9.32533 21.3969C9.13014 21.3482 9.03255 21.1144 9.13014 20.9294L9.39631 20.3743L9.75119 20.5398L10.8336 20.9976L10.6295 21.4261L10.2569 21.6111Z" fill="#203456"/>
<path d="M15.4027 18.6604C15.0478 18.972 14.7284 19.3226 14.4711 19.722C14.3292 19.9265 14.3026 20.1992 14.3824 20.4427L14.6574 21.2413L16.6803 21.212L17.0085 20.4719C17.1239 20.2089 17.0973 19.8973 16.9376 19.6733C16.6537 19.2739 16.2899 18.9526 15.8907 18.6409C15.7398 18.5338 15.5358 18.5435 15.4027 18.6604Z" fill="#BF3F4A"/>
<path d="M4.37466 23.0723C4.37466 23.0723 4.97796 23.569 5.11104 24.7962C5.24412 26.0233 5.51028 24.0755 5.19976 23.384C4.88924 22.6925 4.59646 22.5464 4.59646 22.5464L4.37466 23.0723Z" fill="#203456"/>
<path d="M15.6422 18.7092C15.6422 18.7092 16.4939 19.7416 16.4407 20.2967C16.3786 20.8518 15.7753 21.2317 15.7753 21.2317H16.8311L17.319 20.1896L16.7246 19.3812C16.7246 19.3812 16.1568 18.8066 16.1302 18.7774C16.0947 18.7482 15.6511 18.5631 15.6511 18.5631V18.7092H15.6422Z" fill="#A43447"/>
<path d="M19.1201 9.72972C19.1645 9.74921 19.2088 9.69073 19.1734 9.65175C19.0048 9.42757 18.6144 9.11568 17.9135 9.17416C17.2392 9.23264 17.1949 9.46656 16.6359 9.58352C16.4851 9.61276 16.4053 9.71997 16.5295 9.80769C16.6005 9.86617 16.6892 9.90516 16.8223 9.89541C17.2836 9.88567 17.5054 9.63225 17.949 9.57377C18.2507 9.55428 18.712 9.56403 19.1201 9.72972Z" fill="#272A24"/>
<path d="M8.37597 29.2567C9.15671 29.2567 10.8956 29.3152 11.2949 29.3152H12.1377C12.5015 29.3152 13.8944 29.2762 14.4179 29.2762C14.7816 29.2762 15.66 29.3152 15.8551 29.3152H16.698C16.9198 29.3152 18.1796 29.2957 18.5079 29.2957C19.0136 29.2957 20.1581 29.3152 20.4154 29.3152H21.9858C22.1011 29.3152 22.5358 29.3152 22.6512 29.3152H23.3875C23.4674 29.3152 23.636 29.3152 23.8134 29.3152L24.6119 23.4132L24.7361 22.6049L23.9997 22.0205L18.9515 21.3193L14.7195 21.1635L11.7651 21.3193L8.74859 21.6602L7.11613 22.3029L6.9032 23.0042L7.67507 29.2665C7.9501 29.2665 8.19852 29.2567 8.37597 29.2567Z" fill="#E0DFDC"/>
<path d="M16.8932 21.1245L18.7652 21.3096L18.9072 19.4981L19.0935 16.9366L17.6651 17.1899L15.935 18.3294L17.4078 20.2382L16.8932 21.1245Z" fill="white"/>
<path d="M18.295 21.4069C18.295 21.4069 22.3318 22.2152 22.5536 24.3968C22.7399 26.2765 22.039 28.3217 18.2329 29.3638C17.3723 29.5976 23.7513 29.3054 23.7513 29.3054L24.5676 23.3937L24.5055 22.4392L23.4674 21.8159L20.1315 21.475L18.295 21.4069Z" fill="#C3C3C3"/>
<path d="M18.4459 21.3092C18.4459 21.3092 7.48883 21.8838 6.90327 23.0135L6.85004 22.5655L7.16943 22.2246L8.11875 21.9519L10.2037 21.6598L13.5396 21.2897L16.6892 21.2507L18.4459 21.3092Z" fill="white"/>
<path d="M15.8375 27.1722C16.4744 27.1722 16.9908 26.6882 16.9908 26.0912C16.9908 25.4941 16.4744 25.0101 15.8375 25.0101C15.2005 25.0101 14.6841 25.4941 14.6841 26.0912C14.6841 26.6882 15.2005 27.1722 15.8375 27.1722Z" fill="#C3C3C3"/>
<path d="M20.6195 21.29L21.7729 20.9491C21.968 20.9004 22.0656 20.6667 21.968 20.4816L21.7019 19.9265L21.347 20.0921L20.3533 20.6277V20.9978L20.6195 21.29Z" fill="#203456"/>
<path d="M15.8552 27.3963C15.1543 27.3963 14.551 26.8801 14.4534 26.1984C14.4002 25.838 14.551 25.5556 14.6929 25.3803C14.968 25.0199 15.4471 24.7667 15.8552 24.7667C16.2633 24.7667 16.7335 25.0199 17.0174 25.3803C17.1505 25.5556 17.3102 25.838 17.257 26.1984C17.1594 26.8801 16.5561 27.3963 15.8552 27.3963ZM15.8552 25.1173C15.5447 25.1173 15.2519 25.2537 15.0656 25.4874C14.9059 25.6725 14.8349 25.9062 14.8526 26.14C14.897 26.6561 15.3317 27.0457 15.8552 27.0457C16.3786 27.0457 16.8134 26.6561 16.8577 26.14C16.8755 25.9062 16.8045 25.6725 16.6448 25.4874C16.4585 25.2537 16.1657 25.1173 15.8552 25.1173Z" fill="#272A24"/>
<path d="M29.7932 29.1592C28.8439 29.1299 27.8946 29.1007 26.9453 29.0812C28.4802 26.5977 29.2875 23.7149 29.2875 20.6958C29.2875 17.5792 28.4269 14.5893 26.7945 12.0571C25.2241 9.62228 23.0682 7.78157 20.5485 6.71025C20.584 6.13564 20.5751 5.68764 20.513 5.36624C20.4509 5.04485 20.1848 3.93458 19.333 2.97039C18.4458 1.96725 17.2481 1.46082 15.7665 1.46082C14.2937 1.46082 13.1048 1.95752 12.2354 2.93144C11.5433 3.71058 11.1885 4.64554 10.9578 5.36624C10.8513 5.70712 10.807 6.14538 10.8424 6.68104C8.30502 7.73287 6.13136 9.57359 4.54326 12.0181C2.89305 14.5601 2.02358 17.5597 2.02358 20.6958C2.02358 23.7247 2.83094 26.6075 4.36582 29.091C3.49635 29.1105 2.37847 29.1397 1.509 29.1689C1.30494 29.1786 1.30494 29.5098 1.509 29.5098C3.15921 29.5682 5.07558 29.5974 6.72579 29.6266C9.7423 29.6851 12.7588 29.7143 15.7753 29.7143C18.7918 29.7143 21.8084 29.6851 24.8249 29.6266C26.4839 29.5974 28.1519 29.5585 29.811 29.5C29.9884 29.5 29.9973 29.1689 29.7932 29.1592ZM20.4687 7.40174C20.4775 7.36278 20.513 7.33356 20.5485 7.35304C25.4637 9.53463 28.7463 14.8425 28.7463 20.6958C28.7463 22.1956 28.5334 23.6468 28.1253 25.0297C28.0809 25.1856 27.8769 25.1758 27.8503 25.02L27.4066 22.741C27.38 22.6144 27.38 22.4781 27.3978 22.3417C27.4421 22.0593 27.4421 21.806 27.3623 21.6113C27.2824 21.4262 27.1494 21.2996 26.9542 21.2412C25.3749 20.6958 20.6372 17.6961 20.2912 17.4818C20.0694 17.2481 19.8476 17.0436 19.6436 16.878C19.3863 16.6735 19.2443 16.3423 19.2709 16.0015L19.3508 15.1152C19.6258 14.5114 19.8831 13.7517 20.0517 12.8265C20.0694 12.7194 20.1404 12.622 20.2291 12.583C20.3001 12.544 20.3622 12.4954 20.4154 12.4369C20.655 12.1642 20.8147 11.687 20.7969 11.424C20.7969 11.3461 20.8147 11.2585 20.859 11.1903C21.4091 10.2651 21.3825 9.02819 21.2139 8.34644C21.1341 8.04453 21.0099 7.84974 20.8413 7.78157C20.7171 7.72313 20.584 7.72313 20.4598 7.78157C20.4421 7.79131 20.4332 7.78157 20.4332 7.78157C20.4332 7.78157 20.4243 7.77183 20.4243 7.75235C20.4421 7.616 20.4509 7.50887 20.4687 7.40174ZM20.1049 21.1146L20.2469 21.2412C20.0251 21.212 19.7944 21.1925 19.5726 21.173C19.5282 21.173 19.4129 21.1633 19.2621 21.1438C19.1201 21.134 19.0225 20.9977 19.0314 20.8516C19.129 19.4297 19.1733 18.261 19.2 17.5597C19.2088 17.326 19.4572 17.1994 19.6258 17.3455C19.8121 17.511 20.0517 17.7448 20.3178 18.0467C21.0454 18.8551 21.4801 19.5368 21.5599 19.79L20.167 20.5302C19.963 20.6471 19.9275 20.9587 20.1049 21.1146ZM20.3001 8.52175C20.3178 8.47305 20.513 8.04453 20.7082 8.13218C20.7526 8.15166 20.8236 8.25879 20.8679 8.44384C21.0099 9.01845 21.0808 10.2261 20.4598 11.1221C20.4332 11.1611 20.4154 11.2195 20.4243 11.2682C20.4509 11.4338 20.3356 11.9402 20.1493 12.1447C20.2025 11.6773 20.238 11.2 20.2469 10.7033C20.2469 10.5767 20.3178 10.4599 20.4243 10.4209L20.4332 10.4112C20.513 10.3819 20.5663 10.2845 20.5485 10.1872C20.4864 9.81707 20.6284 9.3788 20.7171 9.1548C20.7348 9.1061 20.726 9.04767 20.6816 9.01845C20.6639 8.99897 20.6372 8.99897 20.6195 8.99897C20.5929 8.99897 20.5751 9.00871 20.5574 9.02819C20.4864 9.08662 20.4154 9.14506 20.3356 9.2035C20.309 9.22297 20.2735 9.22297 20.2469 9.2035C20.2202 9.18402 20.2025 9.1548 20.2025 9.11584C20.2114 8.95027 20.2469 8.75549 20.3001 8.52175ZM11.2772 5.50259C11.5966 4.50919 12.4483 1.86012 15.7487 1.86012C17.1328 1.86012 18.2418 2.32761 19.058 3.25283C19.8387 4.1391 20.0872 5.16172 20.1404 5.4539C20.2912 6.22329 20.0694 7.73287 19.9275 8.57045C19.9009 8.71653 19.8831 8.84314 19.8654 8.9308C19.8387 9.05741 19.8387 9.18402 19.8476 9.31063C19.8476 9.35932 19.8565 9.40802 19.8565 9.44698C19.9896 11.3461 19.6791 12.8947 19.3951 13.8491C19.3153 14.1315 19.2177 14.414 19.1112 14.6769L19.0757 14.7548C18.8539 15.2905 18.5257 15.6898 18.295 15.9333C18.2861 15.943 18.2773 15.943 18.2684 15.9333C18.2595 15.9333 18.2506 15.9236 18.2506 15.9138C18.2506 15.8359 18.2595 15.7483 18.2595 15.6509C18.2595 15.6022 18.2418 15.5535 18.1974 15.534C18.1353 15.5048 18.0643 15.534 18.0466 15.6022C17.878 16.167 17.4078 17.4624 16.7779 17.4624C16.3254 17.4624 16.2189 17.2189 16.1125 16.9754C16.0326 16.7806 15.9439 16.5858 15.6777 16.5858C15.3761 16.5858 15.2696 16.8196 15.172 17.0436C15.0656 17.287 14.9591 17.511 14.6131 17.511C14.6042 17.511 14.6042 17.511 14.5953 17.511C14.0009 17.5013 13.5041 16.1378 13.3178 15.5535C13.3 15.5048 13.2645 15.4756 13.2113 15.4756C13.2024 15.4756 13.1936 15.4756 13.1936 15.4756C13.1403 15.4853 13.1048 15.534 13.1048 15.6022C13.1048 15.6411 13.1048 15.6801 13.1137 15.719C13.1137 15.7483 13.096 15.758 13.0871 15.758C13.0782 15.758 13.0605 15.7677 13.0427 15.7483C12.7854 15.5048 12.4305 15.1152 12.2265 14.6575C11.9071 13.8296 11.703 12.8947 11.6143 11.8818C11.5256 10.8592 11.5877 9.97289 11.6232 9.54437C11.6321 9.44698 11.6409 9.35932 11.6587 9.26193C11.6675 9.16454 11.6675 9.06715 11.6321 8.96975C11.6232 8.9308 11.6054 8.8821 11.5877 8.8334C11.4369 8.32696 10.9667 6.48625 11.2772 5.50259ZM18.6765 18.7187L17.7982 19.9361C17.7272 20.0335 17.5941 20.0238 17.5409 19.9264C17.2392 19.4297 16.8311 19.0012 16.3343 18.6116C16.281 18.5726 16.2988 18.4752 16.3698 18.4655C16.9464 18.3681 17.4522 18.0564 17.7449 17.6571C17.9756 17.5695 18.2329 17.4526 18.4724 17.3357C18.641 17.2578 18.8185 17.3942 18.8185 17.589C18.8185 17.7837 18.783 18.2804 18.7652 18.5044C18.7386 18.5921 18.712 18.6603 18.6765 18.7187ZM18.7386 19.6245C18.7209 20.0335 18.6854 20.5399 18.641 21.1048C18.2861 21.0756 17.9579 21.0561 17.9046 21.0464C17.6562 21.0366 17.4078 21.0269 17.1594 21.0172C17.2304 20.8808 17.3013 20.7445 17.3457 20.6568C17.3812 20.5984 17.4522 20.5789 17.5054 20.6373C17.6296 20.7737 17.8337 20.7542 17.9401 20.5984L18.6055 19.5758C18.6499 19.5076 18.7386 19.5465 18.7386 19.6245ZM13.8944 20.0335C13.8412 20.1212 13.7259 20.1212 13.6638 20.0432L12.7322 18.894C12.6346 18.7674 12.5725 18.6213 12.5636 18.4558C12.537 18.1246 12.5193 17.8032 12.5015 17.511C12.4927 17.365 12.6435 17.2676 12.7588 17.3357C13.0782 17.5403 13.5041 17.7643 14.0009 17.9104C14.2405 18.1246 14.6397 18.3291 14.9946 18.4071C15.0833 18.4265 15.1099 18.5434 15.0478 18.6116C14.5953 19.0693 14.205 19.5465 13.8944 20.0335ZM14.2671 21.0172C14.1162 21.0269 13.9654 21.0269 13.8146 21.0366C13.7081 21.0464 13.2379 21.0756 12.8298 21.1048C12.7943 20.6471 12.7588 20.0822 12.7322 19.79C12.7322 19.7316 12.8032 19.7024 12.8387 19.7511L13.4952 20.6568C13.6283 20.8321 13.8678 20.8419 14.0098 20.6763C14.0453 20.6276 14.1162 20.6373 14.1429 20.6958L14.2671 21.0172ZM11.011 20.8321L9.70682 20.3744C9.56486 20.3257 9.50276 20.1504 9.58261 20.0043C10.0528 19.1278 10.6827 18.2804 11.5877 17.6864C11.8361 17.5208 12.1555 17.6961 12.1821 18.0175C12.2354 18.8258 12.3418 19.829 12.4572 20.8029C12.4749 20.9782 12.3596 21.134 12.1999 21.1535C12.191 21.1535 12.1821 21.1535 12.1733 21.1535C11.8361 21.1827 11.4901 21.2217 11.153 21.2606C11.2417 21.1146 11.1796 20.8906 11.011 20.8321ZM12.4217 16.0502L12.4039 15.8359C12.6257 16.1768 12.8919 16.5274 13.2113 16.8585C13.3 16.9462 13.371 17.0436 13.4331 17.1507C13.1048 16.9754 12.8475 16.7709 12.679 16.6053C12.5281 16.469 12.4305 16.2644 12.4217 16.0502ZM14.6397 19.8777C14.8792 19.5173 15.1632 19.2057 15.4914 18.9135C15.6156 18.8064 15.8019 18.7966 15.935 18.894C16.2988 19.1667 16.6271 19.4686 16.8843 19.829C17.0352 20.0335 17.0529 20.3159 16.9464 20.5594L16.7513 20.9977C16.423 20.988 16.0947 20.9879 15.7753 20.9879C15.4293 20.9879 15.0744 20.9977 14.7284 20.9977L14.5687 20.5302C14.48 20.3159 14.5155 20.0725 14.6397 19.8777ZM18.5434 16.7806C18.437 16.8293 18.3394 16.8683 18.2329 16.9072C18.2329 16.9072 18.2329 16.8975 18.224 16.8975C18.224 16.8975 18.224 16.8975 18.2152 16.8877C18.3749 16.7124 18.6321 16.4008 18.9072 15.9333L18.8717 16.2644C18.8717 16.4982 18.7386 16.693 18.5434 16.7806ZM11.3038 9.17428C11.2949 9.20349 11.2772 9.22297 11.2594 9.23271C11.2328 9.24245 11.2062 9.24245 11.1796 9.23271C11.082 9.17428 10.9933 9.1061 10.9134 9.02819C10.8779 8.99897 10.8247 8.99897 10.7892 9.02819C10.7537 9.05741 10.736 9.11584 10.7537 9.1548C10.8513 9.39828 10.9933 9.85602 10.9134 10.2359C10.8957 10.3138 10.94 10.3917 11.011 10.4112C11.0199 10.4112 11.0199 10.4112 11.0288 10.4112C11.1264 10.4501 11.1973 10.5572 11.1973 10.6741C11.1973 11.0929 11.2062 11.5214 11.2417 11.9305C11.2506 11.9987 11.2506 12.0571 11.2594 12.1253C11.2594 12.135 11.2506 12.1447 11.2506 12.1447C11.2417 12.1447 11.2328 12.1447 11.2239 12.135C11.0376 11.9305 10.9312 11.4143 10.9489 11.2487C10.9578 11.1903 10.94 11.1416 10.9134 11.0929C10.3012 10.1969 10.3634 8.98923 10.5142 8.42436C10.5585 8.23931 10.6295 8.13218 10.6739 8.1127C10.6916 8.10296 10.7094 8.10296 10.7271 8.10296C10.9134 8.10296 11.0731 8.50227 11.082 8.50227C11.1441 8.68732 11.2683 9.05741 11.3038 9.17428ZM2.53816 20.6958C2.53816 14.8133 5.83858 9.49567 10.7981 7.33357C10.8424 7.31409 10.8957 7.3433 10.9045 7.40174C10.9134 7.47965 10.9312 7.57704 10.94 7.65496C10.9489 7.71339 10.9045 7.76209 10.8513 7.75235C10.7537 7.73287 10.6561 7.74261 10.5585 7.78157C10.39 7.85948 10.2658 8.05427 10.1859 8.34644C10.0085 9.02819 9.98185 10.2164 10.5142 11.1513C10.5763 11.2487 10.6029 11.3753 10.6029 11.4922C10.594 11.7844 10.7715 12.1934 10.9933 12.4369C11.0465 12.4954 11.1086 12.544 11.1707 12.583C11.2772 12.6414 11.3482 12.7486 11.3659 12.8654C11.4546 13.479 11.6143 14.2776 12.0136 15.1152L12.0845 16.2255C12.1112 16.5761 11.9515 16.9072 11.6853 17.0923C11.1973 17.4234 10.7626 17.7837 10.3811 18.1928C9.139 18.7382 5.17318 20.5107 4.62311 21.1243C4.35694 21.4165 4.32145 21.7087 4.4013 22.0203C4.35694 22.3027 4.06416 23.8902 3.56733 25.4972C3.52297 25.6336 3.3544 25.6336 3.31004 25.4972C2.80433 23.9779 2.53816 22.3612 2.53816 20.6958ZM4.79168 28.7404C4.41905 28.1463 4.09078 27.5132 3.80687 26.8607C3.68266 26.5783 3.67379 26.2569 3.77138 25.9647C4.13514 24.8447 4.41018 23.676 4.56987 22.9163C4.59649 22.7994 4.72957 22.78 4.7828 22.8774C4.97799 23.2182 5.19092 23.5883 5.31513 24.0266C5.33287 24.0948 5.42159 24.0753 5.42159 24.0071C5.40385 23.6175 5.33287 23.0721 5.08445 22.6728C4.69408 22.0593 4.561 21.7184 4.86265 21.3873C5.23528 20.9782 7.66623 19.8192 9.44952 19.0109C9.55599 18.9622 9.64471 19.0985 9.58261 19.1959C9.36968 19.5368 9.18336 19.9069 9.03254 20.2965C8.9793 20.4036 9.03254 20.5302 9.139 20.5692L10.4432 21.0269C10.594 21.0853 10.5763 21.3288 10.4166 21.3483C9.42291 21.4846 8.42923 21.66 7.4533 21.8645C7.2315 21.9132 7.02744 22.0398 6.88549 22.2248C6.70805 22.4683 6.64594 22.7702 6.69918 23.0721L7.47992 29.0131C7.22263 29.0131 6.97421 29.0228 6.71692 29.0228C6.27331 29.0325 5.82971 29.0423 5.37723 29.052C5.13769 29.0715 4.92476 28.9546 4.79168 28.7404ZM7.8348 29.0228L7.03632 23.004C7.00083 22.8092 7.04519 22.6144 7.1694 22.4683C7.24925 22.3612 7.37346 22.293 7.50654 22.2638C10.2391 21.6794 13.0161 21.3775 15.7753 21.3775C18.5346 21.3775 21.3115 21.6697 24.0441 22.2638C24.1772 22.293 24.3014 22.3709 24.3813 22.4683C24.4966 22.6144 24.5498 22.8092 24.5143 23.004L23.6271 29.0228C21.001 28.9838 18.3749 28.9546 15.7487 28.9546C13.1137 28.9546 10.4698 28.9741 7.8348 29.0228ZM24.3192 29.0325C24.1417 29.0325 24.0175 28.8572 24.0441 28.6722L24.8604 23.0819C24.9225 22.7605 24.8337 22.4391 24.6297 22.1859C24.4966 22.0203 24.3103 21.9229 24.1062 21.8742C23.1214 21.66 22.1277 21.4944 21.1341 21.358C20.9744 21.3386 20.8236 21.2606 20.6993 21.1535L20.5929 21.0561C20.4864 20.9587 20.5042 20.7834 20.6284 20.7153C20.6284 20.7153 21.6753 20.2672 21.9148 19.9653C21.9947 19.8582 21.9503 19.6342 21.5866 19.0791C21.5688 19.0498 21.5422 19.0109 21.5244 18.9817C21.4446 18.8648 21.5688 18.709 21.6841 18.7869C23.3166 19.79 25.7653 21.2314 26.8477 21.6015C26.9719 21.6405 27.0163 21.7184 27.0429 21.7671C27.1937 22.1372 26.8477 23.0234 26.5194 23.8805C26.2533 24.5622 25.9605 25.3219 25.8097 26.0426C25.7919 26.14 25.9073 26.1887 25.9516 26.101C26.2089 25.5362 26.6259 24.5915 26.8388 24.0363C26.8832 23.9195 26.9276 23.8123 26.9719 23.6955C27.0251 23.5591 27.2115 23.5786 27.2381 23.7247L27.6196 25.7212C27.6817 26.0523 27.6551 26.403 27.522 26.7049C27.2292 27.3964 26.8921 28.0586 26.5106 28.6819C26.3686 28.9254 26.1202 29.0618 25.854 29.052C25.4991 29.0423 25.1531 29.0423 24.7983 29.0325C24.6386 29.0325 24.4789 29.0325 24.3192 29.0325Z" fill="#272A24"/>
</svg>
